{
  "bpm": 134,
  "timeSignature": {
    "numerator": 4,
    "denominator": 4
  },
  "tracks": [
    {
      "name": "NIN Style Aggressive Synth",
      "instrument": 81,
      "notes": [
        {"pitch": 45, "beat": 1.0, "duration": "16", "velocity": 110},
        {"pitch": 52, "beat": 1.25, "duration": "16", "velocity": 95},
        {"pitch": 45, "beat": 1.5, "duration": "16", "velocity": 110},
        {"pitch": 55, "beat": 1.75, "duration": "16", "velocity": 100},
        {"pitch": 45, "beat": 2.0, "duration": "16", "velocity": 110},
        {"pitch": 52, "beat": 2.25, "duration": "16", "velocity": 95},
        {"pitch": 45, "beat": 2.5, "duration": "16", "velocity": 110},
        {"pitch": 46, "beat": 2.75, "duration": "16", "velocity": 105},
        {"pitch": 45, "beat": 3.0, "duration": "16", "velocity": 110},
        {"pitch": 52, "beat": 3.25, "duration": "16", "velocity": 95},
        {"pitch": 45, "beat": 3.5, "duration": "16", "velocity": 110},
        {"pitch": 55, "beat": 3.75, "duration": "16", "velocity": 100},
        {"pitch": 45, "beat": 4.0, "duration": "16", "velocity": 110},
        {"pitch": 52, "beat": 4.25, "duration": "16", "velocity": 95},
        {"pitch": 53, "beat": 4.5, "duration": "16", "velocity": 100},
        {"pitch": 52, "beat": 4.75, "duration": "16", "velocity": 95},
        {"pitch": 45, "beat": 5.0, "duration": "16", "velocity": 115},
        {"pitch": 52, "beat": 5.25, "duration": "16", "velocity": 100},
        {"pitch": 45, "beat": 5.5, "duration": "16", "velocity": 115},
        {"pitch": 55, "beat": 5.75, "duration": "16", "velocity": 105},
        {"pitch": 45, "beat": 6.0, "duration": "16", "velocity": 115},
        {"pitch": 52, "beat": 6.25, "duration": "16", "velocity": 100},
        {"pitch": 45, "beat": 6.5, "duration": "16", "velocity": 115},
        {"pitch": 46, "beat": 6.75, "duration": "16", "velocity": 110},
        {"pitch": 45, "beat": 7.0, "duration": "16", "velocity": 115},
        {"pitch": 52, "beat": 7.25, "duration": "16", "velocity": 100},
        {"pitch": 45, "beat": 7.5, "duration": "16", "velocity": 115},
        {"pitch": 55, "beat": 7.75, "duration": "16", "velocity": 105},
        {"pitch": 45, "beat": 8.0, "duration": "16", "velocity": 115},
        {"pitch": 52, "beat": 8.25, "duration": "16", "velocity": 100},
        {"pitch": 53, "beat": 8.5, "duration": "16", "velocity": 105},
        {"pitch": 52, "beat": 8.75, "duration": "16", "velocity": 100},
        {"pitch": 45, "beat": 9.0, "duration": "16", "velocity": 120},
        {"pitch": 52, "beat": 9.25, "duration": "16", "velocity": 105},
        {"pitch": 45, "beat": 9.5, "duration": "16", "velocity": 120},
        {"pitch": 69, "beat": 9.75, "duration": "16", "velocity": 110},
        {"pitch": 45, "beat": 10.0, "duration": "16", "velocity": 120},
        {"pitch": 52, "beat": 10.25, "duration": "16", "velocity": 105},
        {"pitch": 45, "beat": 10.5, "duration": "16", "velocity": 120},
        {"pitch": 46, "beat": 10.75, "duration": "16", "velocity": 115},
        {"pitch": 45, "beat": 11.0, "duration": "16", "velocity": 120},
        {"pitch": 52, "beat": 11.25, "duration": "16", "velocity": 105},
        {"pitch": 45, "beat": 11.5, "duration": "16", "velocity": 120},
        {"pitch": 69, "beat": 11.75, "duration": "16", "velocity": 110},
        {"pitch": 45, "beat": 12.0, "duration": "16", "velocity": 120},
        {"pitch": 52, "beat": 12.25, "duration": "16", "velocity": 105},
        {"pitch": 53, "beat": 12.5, "duration": "16", "velocity": 110},
        {"pitch": 52, "beat": 12.75, "duration": "16", "velocity": 105},
        {"pitch": 45, "beat": 13.0, "duration": "16", "velocity": 125},
        {"pitch": 52, "beat": 13.25, "duration": "16", "velocity": 110},
        {"pitch": 45, "beat": 13.5, "duration": "16", "velocity": 125},
        {"pitch": 69, "beat": 13.75, "duration": "16", "velocity": 115},
        {"pitch": 45, "beat": 14.0, "duration": "16", "velocity": 125},
        {"pitch": 52, "beat": 14.25, "duration": "16", "velocity": 110},
        {"pitch": 45, "beat": 14.5, "duration": "16", "velocity": 125},
        {"pitch": 46, "beat": 14.75, "duration": "16", "velocity": 120},
        {"pitch": 45, "beat": 15.0, "duration": "16", "velocity": 125},
        {"pitch": 52, "beat": 15.25, "duration": "16", "velocity": 110},
        {"pitch": 45, "beat": 15.5, "duration": "16", "velocity": 125},
        {"pitch": 69, "beat": 15.75, "duration": "16", "velocity": 115},
        {"pitch": 45, "beat": 16.0, "duration": "16", "velocity": 125},
        {"pitch": 52, "beat": 16.25, "duration": "16", "velocity": 110},
        {"pitch": 53, "beat": 16.5, "duration": "16", "velocity": 115},
        {"pitch": 52, "beat": 16.75, "duration": "16", "velocity": 110},
        {"pitch": 57, "beat": 17.0, "duration": "16", "velocity": 127},
        {"pitch": 64, "beat": 17.25, "duration": "16", "velocity": 115},
        {"pitch": 57, "beat": 17.5, "duration": "16", "velocity": 127},
        {"pitch": 67, "beat": 17.75, "duration": "16", "velocity": 120},
        {"pitch": 57, "beat": 18.0, "duration": "16", "velocity": 127},
        {"pitch": 64, "beat": 18.25, "duration": "16", "velocity": 115},
        {"pitch": 57, "beat": 18.5, "duration": "16", "velocity": 127},
        {"pitch": 58, "beat": 18.75, "duration": "16", "velocity": 125},
        {"pitch": 57, "beat": 19.0, "duration": "16", "velocity": 127},
        {"pitch": 64, "beat": 19.25, "duration": "16", "velocity": 115},
        {"pitch": 57, "beat": 19.5, "duration": "16", "velocity": 127},
        {"pitch": 67, "beat": 19.75, "duration": "16", "velocity": 120},
        {"pitch": 57, "beat": 20.0, "duration": "16", "velocity": 127},
        {"pitch": 64, "beat": 20.25, "duration": "16", "velocity": 115},
        {"pitch": 65, "beat": 20.5, "duration": "16", "velocity": 120},
        {"pitch": 64, "beat": 20.75, "duration": "16", "velocity": 115},
        {"pitch": 57, "beat": 21.0, "duration": "16", "velocity": 127},
        {"pitch": 64, "beat": 21.25, "duration": "16", "velocity": 120},
        {"pitch": 57, "beat": 21.5, "duration": "16", "velocity": 127},
        {"pitch": 67, "beat": 21.75, "duration": "16", "velocity": 125},
        {"pitch": 57, "beat": 22.0, "duration": "16", "velocity": 127},
        {"pitch": 64, "beat": 22.25, "duration": "16", "velocity": 120},
        {"pitch": 57, "beat": 22.5, "duration": "16", "velocity": 127},
        {"pitch": 58, "beat": 22.75, "duration": "16", "velocity": 125},
        {"pitch": 57, "beat": 23.0, "duration": "16", "velocity": 127},
        {"pitch": 64, "beat": 23.25, "duration": "16", "velocity": 120},
        {"pitch": 57, "beat": 23.5, "duration": "16", "velocity": 127},
        {"pitch": 67, "beat": 23.75, "duration": "16", "velocity": 125},
        {"pitch": 57, "beat": 24.0, "duration": "16", "velocity": 127},
        {"pitch": 81, "beat": 24.25, "duration": "16", "velocity": 120},
        {"pitch": 80, "beat": 24.5, "duration": "16", "velocity": 120},
        {"pitch": 79, "beat": 24.75, "duration": "16", "velocity": 120},
        {"pitch": 57, "beat": 25.0, "duration": "16", "velocity": 127},
        {"pitch": 64, "beat": 25.25, "duration": "16", "velocity": 115},
        {"pitch": 57, "beat": 25.5, "duration": "16", "velocity": 127},
        {"pitch": 67, "beat": 25.75, "duration": "16", "velocity": 120},
        {"pitch": 57, "beat": 26.0, "duration": "16", "velocity": 127},
        {"pitch": 64, "beat": 26.25, "duration": "16", "velocity": 115},
        {"pitch": 57, "beat": 26.5, "duration": "16", "velocity": 127},
        {"pitch": 58, "beat": 26.75, "duration": "16", "velocity": 125},
        {"pitch": 57, "beat": 27.0, "duration": "16", "velocity": 127},
        {"pitch": 64, "beat": 27.25, "duration": "16", "velocity": 115},
        {"pitch": 57, "beat": 27.5, "duration": "16", "velocity": 127},
        {"pitch": 67, "beat": 27.75, "duration": "16", "velocity": 120},
        {"pitch": 57, "beat": 28.0, "duration": "16", "velocity": 127},
        {"pitch": 81, "beat": 28.25, "duration": "16", "velocity": 125},
        {"pitch": 80, "beat": 28.5, "duration": "16", "velocity": 122},
        {"pitch": 79, "beat": 28.75, "duration": "16", "velocity": 120},
        {"pitch": 57, "beat": 29.0, "duration": "16", "velocity": 127},
        {"pitch": 64, "beat": 29.25, "duration": "16", "velocity": 115},
        {"pitch": 57, "beat": 29.5, "duration": "16", "velocity": 127},
        {"pitch": 67, "beat": 29.75, "duration": "16", "velocity": 120},
        {"pitch": 57, "beat": 30.0, "duration": "16", "velocity": 127},
        {"pitch": 64, "beat": 30.25, "duration": "16", "velocity": 115},
        {"pitch": 57, "beat": 30.5, "duration": "16", "velocity": 127},
        {"pitch": 58, "beat": 30.75, "duration": "16", "velocity": 125},
        {"pitch": 57, "beat": 31.0, "duration": "16", "velocity": 127},
        {"pitch": 64, "beat": 31.25, "duration": "16", "velocity": 115},
        {"pitch": 57, "beat": 31.5, "duration": "16", "velocity": 127},
        {"pitch": 67, "beat": 31.75, "duration": "16", "velocity": 120},
        {"pitch": 82, "beat": 32.0, "duration": "16", "velocity": 127},
        {"pitch": 81, "beat": 32.25, "duration": "16", "velocity": 125},
        {"pitch": 80, "beat": 32.5, "duration": "16", "velocity": 122},
        {"pitch": 79, "beat": 32.75, "duration": "16", "velocity": 120}
      ]
    }
  ]
}